<svg viewBox="0 0 108.55 108.42" xmlns="http://www.w3.org/2000/svg"><circle cx="54.21" cy="54.21" fill="#ff4224" r="54.21"/><path d="M108 61.12L47.29.45c-1.63.21-3.25.5-4.87.86L107.11 66c.36-1.62.64-3.24.89-4.88z" fill="#ea2010"/><path d="M21.77 10.78l75.86 75.87c1.5-2 2.85-4.09 4.05-6.28L28 6.73a54.466 54.466 0 0 0-6.23 4.05z" fill="#ff682d"/><path d="M5 31.41l72 72a53.88 53.88 0 0 0 12.61-8.17L13.17 18.81A53.82 53.82 0 0 0 5 31.41z" fill="#ea2010"/><path d="M1 43.92l63.5 63.52c2.98-.57 5.91-1.39 8.75-2.44L3.46 35.17A54.134 54.134 0 0 0 1 43.92z" fill="#ff682d"/><path d="M15.88 92.54a53.956 53.956 0 0 0 36.69 15.84L0 55.85c.4 13.81 6.09 26.94 15.88 36.69z" fill="#ea2010"/><path d="M108.55 54.21c0 29.94-24.27 54.21-54.21 54.21a54.2 54.2 0 0 1-42.96-21.15c23.68 18.31 57.73 13.96 76.05-9.73 15.09-19.51 15.1-46.75.03-66.27a54.12 54.12 0 0 1 21.09 42.94z" fill="#420505" opacity=".2"/><path d="M50.24 55.69h-3.31c-3.24 0-4.87-2.47-4.87-4.87s1.62-4.87 4.87-4.87h8.57c2.4 0 5.26.91 5.26 5.26v35.76c0 3.7-2.21 5.58-5.26 5.58s-5.26-1.88-5.26-5.58z" fill="#b71515" stroke="#b71515" stroke-miterlimit="10" stroke-width="4.64"/><path d="M50.24 52.45h-3.31c-3.24 0-4.87-2.47-4.87-4.87s1.62-4.87 4.87-4.87h8.57c2.4 0 5.26.91 5.26 5.26v35.76c0 3.7-2.21 5.58-5.26 5.58s-5.26-1.88-5.26-5.58z" fill="#fff" stroke="#fff" stroke-miterlimit="10" stroke-width="4.64"/><path d="M38.33 25.61c1.03 0 1.43.52 1.43 1.57 0 3.15-2.05 5.51-5.32 5.51s-5.61-2.63-5.61-6 2.28-6 5.61-6c2.46 0 4.48 1.16 4.48 2.3 0 .7-.44 1.14-1.01 1.14-1.11 0-1.34-1.19-3.47-1.19s-3.07 1.78-3.07 3.75.99 3.75 3.07 3.75c1.29 0 2.77-.72 2.77-2.58h-1.66c-.67 0-1.14-.47-1.14-1.14s.52-1.11 1.14-1.11h2.77zm2.45-3.45c0-.78.44-1.27 1.26-1.27h2.87c2.51 0 4.06 1.13 4.06 3.69 0 1.79-1.35 2.82-3.02 3.08l2.77 2.97c.23.24.33.49.33.72 0 .64-.51 1.26-1.22 1.26-.29 0-.69-.11-.95-.42l-3.62-4.39h-.03v3.54c0 .82-.52 1.27-1.22 1.27s-1.22-.46-1.22-1.27v-9.16zm2.45 3.86h1.68c.9 0 1.52-.54 1.52-1.45s-.62-1.43-1.52-1.43h-1.68v2.89zm9.3-3.98c.28-.75.91-1.35 1.75-1.35s1.47.57 1.75 1.35l3.2 8.87c.1.26.13.49.13.6 0 .64-.52 1.08-1.13 1.08-.69 0-1.03-.36-1.19-.85l-.49-1.53h-4.53l-.49 1.52c-.16.51-.51.86-1.17.86s-1.21-.49-1.21-1.14c0-.26.08-.46.11-.54l3.28-8.87zm.18 5.92h3.1l-1.52-4.73h-.03zm7.41-5.82c0-.75.52-1.26 1.26-1.26h2.71c3.65 0 5.74 2.35 5.74 5.97 0 3.42-2.22 5.64-5.58 5.64h-2.84c-.54 0-1.29-.29-1.29-1.22zm2.45 8.11h1.65c2.1 0 3.07-1.55 3.07-3.51 0-2.09-.98-3.6-3.23-3.6h-1.48v7.11zm8.42-7.95c0-.82.41-1.42 1.27-1.42h4.04c.78 0 1.16.55 1.16 1.13s-.39 1.13-1.16 1.13h-2.87v2.38h2.67c.8 0 1.19.55 1.19 1.13s-.41 1.13-1.19 1.13h-2.67v2.48h3.02c.78 0 1.16.55 1.16 1.13s-.39 1.13-1.16 1.13h-4.21c-.72 0-1.26-.49-1.26-1.22v-8.97z" fill="#b71515"/><path d="M38.33 24.16c1.03 0 1.43.52 1.43 1.57 0 3.15-2.05 5.51-5.32 5.51s-5.61-2.63-5.61-6 2.28-6 5.61-6c2.46 0 4.48 1.16 4.48 2.3 0 .7-.44 1.14-1.01 1.14-1.11 0-1.34-1.19-3.47-1.19s-3.07 1.78-3.07 3.75.99 3.75 3.07 3.75c1.29 0 2.77-.72 2.77-2.58h-1.66c-.67 0-1.14-.47-1.14-1.14s.52-1.11 1.14-1.11h2.77zm2.45-3.46c0-.78.44-1.27 1.26-1.27h2.87c2.51 0 4.06 1.13 4.06 3.69 0 1.79-1.35 2.82-3.02 3.08l2.77 2.97c.23.24.33.49.33.72 0 .64-.51 1.26-1.22 1.26-.29 0-.69-.11-.95-.42l-3.62-4.39h-.03v3.54c0 .82-.52 1.27-1.22 1.27s-1.22-.46-1.22-1.27v-9.16zm2.45 3.86h1.68c.9 0 1.52-.54 1.52-1.45s-.62-1.43-1.52-1.43h-1.68v2.89zm9.3-3.97c.28-.75.91-1.35 1.75-1.35s1.47.57 1.75 1.35l3.2 8.87c.1.26.13.49.13.6 0 .64-.52 1.08-1.13 1.08-.69 0-1.03-.36-1.19-.85l-.49-1.53h-4.53l-.49 1.52c-.16.51-.51.86-1.17.86s-1.21-.49-1.21-1.14c0-.26.08-.46.11-.54l3.28-8.87zm.18 5.92h3.1l-1.52-4.73h-.03zm7.41-5.83c0-.75.52-1.26 1.26-1.26h2.71c3.65 0 5.74 2.35 5.74 5.97 0 3.42-2.22 5.64-5.58 5.64h-2.84c-.54 0-1.29-.29-1.29-1.22zm2.45 8.11h1.65c2.1 0 3.07-1.55 3.07-3.51 0-2.09-.98-3.6-3.23-3.6h-1.48v7.11zm8.42-7.94c0-.82.41-1.42 1.27-1.42h4.04c.78 0 1.16.55 1.16 1.13s-.39 1.13-1.16 1.13h-2.87v2.38h2.67c.8 0 1.19.55 1.19 1.13s-.41 1.13-1.19 1.13h-2.67v2.48h3.02c.78 0 1.16.55 1.16 1.13s-.39 1.13-1.16 1.13h-4.21c-.72 0-1.26-.49-1.26-1.22v-8.97z" fill="#fff"/></svg>